<svg viewBox="0 0 48 48" xml:space="preserve" xmlns="http://www.w3.org/2000/svg"><path d="M25.691 47.992c.103.001.205.008.309.008s.206-.007.309-.008h-.618zM7.5 24h6v6h-6zM16.667 24h6v6h-6zM7.5 33h6v6h-6zM16.667 33h6v6h-6z" fill="#e1f1fd" class="fill-000000"></path><path d="M14 0h-4v4H0v44h22.667v-4H4V19.9h18.667v-4H4V8h6v4h4V8h8.667V4H14zM25.98 4h.039-.039zM26.502 4.012v4.013C36.209 8.293 44 16.228 44 26c0 9.771-7.791 17.706-17.498 17.975v4.013C38.42 47.72 48 37.982 48 26S38.42 4.28 26.502 4.012z" fill="#e1f1fd" class="fill-000000"></path><path d="M40 28v-4h-9.499V12.083h-3.999V28h3.999z" fill="#e1f1fd" class="fill-000000"></path></svg>