<svg viewBox="0 0 512 512" xml:space="preserve" xmlns="http://www.w3.org/2000/svg" enable-background="new 0 0 512 512"><path d="M389.768 300.534a5417.96 5417.96 0 0 1-24.037-12.845 4.682 4.682 0 0 0-5.299.592l-68.861 59.974-68.74-59.967a4.684 4.684 0 0 0-5.3-.596c-11.812 6.355-22.405 11.922-31.751 16.833-16.345 8.589-29.306 15.402-39.618 21.61C57.799 288.87 29.778 231.22 52.803 134.012l94.844-42.911 53.657 25.626a84.475 84.475 0 0 0-1.819 17.447c0 44.155 32.108 126.522 93.489 126.522 61.38 0 93.489-82.367 93.489-126.522 0-48.918-41.94-88.717-93.489-88.717-41.772 0-77.23 26.133-89.18 62.074L149.72 81.705a4.689 4.689 0 0 0-3.951-.041L46.85 126.42a4.694 4.694 0 0 0-2.622 3.162c-13.347 54.857-10.881 98.096 7.538 132.186 15.852 29.34 42.94 51.869 84.872 70.468-9.255 6.378-15.726 12.511-20.29 19.845-10.285 16.527-10.049 37.6-9.578 79.581.101 8.926.214 19.042.236 30.203a4.686 4.686 0 0 0 4.686 4.677H471.43a4.686 4.686 0 0 0 4.685-4.708c-.056-11.259 0-21.44.047-30.423.449-83.87-.359-85.094-86.394-130.877zm-12.677-166.358c0 23.027-8.759 52.436-22.313 74.921-11.615 19.266-31.766 42.23-61.805 42.23h-.001c30.04-.001 50.188-22.965 61.804-42.23 13.555-22.485 22.313-51.894 22.313-74.921 0-43.751-37.734-79.345-84.118-79.346h.002c46.382 0 84.118 35.594 84.118 79.346zm-76.48 300.841h-18.098v-17.915h18.098v17.915zm-18.253-35.791v-17.915h18.099v17.915h-18.099zm6.129-41.225a4.67 4.67 0 0 0-.002 0L219.11 297.48l.001-.001 69.376 60.522zm178.304 73.359c-.041 7.737-.087 16.362-.064 25.81h-.001c-.022-9.447.022-18.072.063-25.81.213-39.913.32-59.948-9.382-74.6-9.832-14.848-30.623-25.912-72.044-47.954a6171.442 6171.442 0 0 1-21.221-11.33l.001-.001c7.639 4.104 14.811 7.92 21.222 11.331 41.421 22.042 62.212 33.106 72.044 47.954 9.702 14.652 9.595 34.687 9.382 74.6z" fill="#e1f1fd" class="fill-000000"></path><path d="M139.048 144.093a4.686 4.686 0 0 0-3.863-8.538l-55.483 25.106a4.69 4.69 0 0 0-2.621 3.162c-7.612 31.284-6.167 56.015 4.417 75.604 9.557 17.689 26.951 31.56 53.177 42.402a4.688 4.688 0 0 0 6.121-2.541 4.685 4.685 0 0 0-2.54-6.12C89.17 252.876 73.351 221.426 85.66 168.25l53.388-24.157z" fill="#e1f1fd" class="fill-000000"></path></svg>